<svg width="13" height="12" viewBox="0 0 13 12" fill="none" xmlns="http://www.w3.org/2000/svg">
<path d="M6.33325 0C3.02725 0 0.333252 2.694 0.333252 6C0.333252 9.306 3.02725 12 6.33325 12C9.63925 12 12.3333 9.306 12.3333 6C12.3333 2.694 9.63925 0 6.33325 0ZM8.94325 8.142C8.85925 8.286 8.70925 8.364 8.55325 8.364C8.47525 8.364 8.39725 8.346 8.32525 8.298L6.46525 7.188C6.00325 6.912 5.66125 6.306 5.66125 5.772V3.312C5.66125 3.066 5.86525 2.862 6.11125 2.862C6.35725 2.862 6.56125 3.066 6.56125 3.312V5.772C6.56125 5.988 6.74125 6.306 6.92725 6.414L8.78725 7.524C9.00325 7.65 9.07525 7.926 8.94325 8.142Z" fill="white"/>
</svg>
