<svg width="24" height="24" viewBox="0 0 24 24" fill="none" xmlns="http://www.w3.org/2000/svg">
<path fill-rule="evenodd" clip-rule="evenodd" d="M4.44833 2.75162C4.222 2.53303 3.91888 2.41208 3.60425 2.41481C3.28961 2.41754 2.98863 2.54375 2.76614 2.76624C2.54366 2.98873 2.41745 3.2897 2.41472 3.60434C2.41198 3.91897 2.53294 4.2221 2.75153 4.44842L19.5515 21.2484C19.7778 21.467 20.081 21.588 20.3956 21.5852C20.7102 21.5825 21.0112 21.4563 21.2337 21.2338C21.4562 21.0113 21.5824 20.7103 21.5851 20.3957C21.5879 20.0811 21.4669 19.7779 21.2483 19.5516L19.4807 17.784C21.3498 16.2938 22.7319 14.2799 23.4503 12C21.9215 7.13162 17.3735 3.60002 11.9999 3.60002C10.1188 3.59747 8.26373 4.03904 6.58553 4.88882L4.44953 2.75162H4.44833ZM9.56153 7.86362L11.3783 9.68162C11.7852 9.57356 12.2134 9.57428 12.6199 9.68369C13.0265 9.79311 13.3971 10.0074 13.6948 10.3051C13.9925 10.6028 14.2068 10.9735 14.3163 11.38C14.4257 11.7866 14.4264 12.2147 14.3183 12.6216L16.1351 14.4384C16.6763 13.5216 16.8974 12.451 16.7635 11.3948C16.6297 10.3387 16.1485 9.35701 15.3957 8.60423C14.6429 7.85145 13.6613 7.37029 12.6051 7.23644C11.549 7.10258 10.4783 7.32364 9.56153 7.86482V7.86362Z" fill="#9AA1AE"/>
<path d="M14.9448 20.0364L11.7 16.7904C10.5332 16.7173 9.43319 16.2209 8.60643 15.3944C7.77966 14.5678 7.28297 13.468 7.20956 12.3012L2.80196 7.89362C1.78821 9.10083 1.02278 10.4963 0.549561 12C2.07836 16.8684 6.62756 20.4 12 20.4C13.0164 20.4 14.0028 20.274 14.9448 20.0364Z" fill="#9AA1AE"/>
</svg>
