<svg width="244" height="329" viewBox="0 0 244 329" fill="none" xmlns="http://www.w3.org/2000/svg">
<path d="M184.499 82.6388V116.012H212.5V82.6388C212.475 60.7293 203.764 39.7244 188.279 24.232C172.794 8.73966 151.799 0.025049 129.9 0H115.6C93.7008 0.025049 72.7057 8.73966 57.2206 24.232C41.7356 39.7244 33.025 60.7293 33 82.6388V116.012H61.0011V82.6388C61.0052 68.1484 66.7574 54.252 76.9944 44.0013C87.2314 33.7506 101.116 27.9836 115.6 27.9669H129.9C144.384 27.9836 158.269 33.7506 168.506 44.0013C178.743 54.252 184.495 68.1484 184.499 82.6388Z" fill="#EEEEEE"/>
<path d="M220.004 116H23.9964C10.7435 116 0 126.749 0 140.008V304.292C0 317.551 10.7435 328.299 23.9964 328.299H220.004C233.256 328.299 244 317.551 244 304.292V140.008C244 126.749 233.256 116 220.004 116Z" fill="#EEEEEE"/>
<path d="M122.09 297.06C163.495 297.06 197.06 263.495 197.06 222.09C197.06 180.686 163.495 147.121 122.09 147.121C80.6857 147.121 47.1206 180.686 47.1206 222.09C47.1206 263.495 80.6857 297.06 122.09 297.06Z" fill="url(#paint0_linear_741_108)"/>
<path opacity="0.3" d="M122.09 150.061C136.336 150.061 150.263 154.285 162.108 162.2C173.953 170.115 183.185 181.364 188.637 194.526C194.089 207.688 195.515 222.17 192.736 236.143C189.957 250.115 183.096 262.95 173.023 273.023C162.949 283.097 150.115 289.957 136.143 292.736C122.17 295.515 107.687 294.089 94.5257 288.637C81.364 283.185 70.1144 273.953 62.1997 262.108C54.285 250.263 50.0606 236.337 50.0606 222.09C50.0839 202.994 57.6802 184.687 71.1833 171.183C84.6864 157.68 102.994 150.084 122.09 150.061V150.061ZM122.09 147.121C107.263 147.121 92.768 151.518 80.4393 159.755C68.1106 167.993 58.5017 179.702 52.8274 193.401C47.1531 207.1 45.6684 222.174 48.5611 236.716C51.4539 251.259 58.5939 264.617 69.0786 275.102C79.5633 285.587 92.9217 292.727 107.464 295.62C122.007 298.512 137.081 297.028 150.78 291.353C164.479 285.679 176.187 276.07 184.425 263.741C192.663 251.413 197.06 236.918 197.06 222.09C197.06 202.207 189.161 183.138 175.102 169.079C161.042 155.019 141.973 147.121 122.09 147.121Z" fill="url(#paint1_linear_741_108)"/>
<path opacity="0.3" d="M122.09 147.45C163.279 147.45 196.772 180.91 196.772 222.09C196.772 263.271 163.279 296.73 122.09 296.73C80.9012 296.73 47.4082 263.271 47.4082 222.09C47.4082 180.91 80.9012 147.45 122.09 147.45ZM122.09 144.877C79.4582 144.877 44.8766 179.443 44.8766 222.09C44.8766 264.738 79.4582 299.304 122.09 299.304C164.722 299.304 199.304 264.738 199.304 222.09C199.304 179.443 164.722 144.877 122.09 144.877Z" fill="url(#paint2_linear_741_108)"/>
<path opacity="0.3" d="M122.09 300C137.499 300 152.562 295.431 165.375 286.87C178.187 278.309 188.173 266.141 194.069 251.905C199.966 237.669 201.509 222.004 198.503 206.891C195.497 191.778 188.077 177.896 177.181 167C166.285 156.104 152.403 148.684 137.29 145.678C122.177 142.672 106.512 144.214 92.2756 150.111C78.0395 156.008 65.8717 165.994 57.3108 178.806C48.75 191.618 44.1807 206.681 44.1807 222.09C44.204 242.746 52.4198 262.549 67.0257 277.155C81.6315 291.761 101.435 299.977 122.09 300V300ZM122.09 297.06C107.263 297.06 92.7681 292.663 80.4394 284.425C68.1107 276.188 58.5017 264.479 52.8275 250.78C47.1532 237.081 45.6685 222.007 48.5612 207.465C51.4539 192.922 58.594 179.564 69.0787 169.079C79.5634 158.594 92.9218 151.454 107.465 148.561C122.007 145.669 137.081 147.153 150.78 152.827C164.479 158.502 176.188 168.111 184.425 180.439C192.663 192.768 197.06 207.263 197.06 222.09C197.06 241.974 189.162 261.042 175.102 275.102C161.042 289.162 141.974 297.06 122.09 297.06Z" fill="#212355"/>
<path d="M123.707 185.341H123.413C120.247 185.341 117.68 187.907 117.68 191.074V220.767C117.68 223.934 120.247 226.5 123.413 226.5H123.707C126.874 226.5 129.44 223.934 129.44 220.767V191.074C129.44 187.907 126.874 185.341 123.707 185.341Z" fill="#F5B811"/>
<path d="M123.56 256.429C117.296 256.439 111.175 254.555 106 251.024C100.825 247.493 96.8381 242.481 94.562 236.644C92.286 230.808 91.827 224.42 93.2453 218.318C94.6636 212.216 97.8932 206.686 102.51 202.451C103.062 201.928 103.712 201.52 104.423 201.251C105.133 200.981 105.891 200.856 106.65 200.882C107.41 200.908 108.157 201.084 108.848 201.402C109.539 201.719 110.16 202.171 110.674 202.73C111.189 203.29 111.587 203.946 111.846 204.661C112.104 205.375 112.218 206.135 112.181 206.894C112.143 207.653 111.955 208.397 111.628 209.083C111.3 209.769 110.839 210.383 110.272 210.889C108.257 212.713 106.65 214.942 105.556 217.429C104.462 219.917 103.905 222.607 103.921 225.324C103.929 228.62 104.765 231.862 106.354 234.749C107.944 237.637 110.234 240.078 113.015 241.848C115.795 243.618 118.977 244.66 122.265 244.877C125.554 245.094 128.845 244.48 131.834 243.092C134.824 241.703 137.415 239.584 139.371 236.931C141.326 234.277 142.582 231.174 143.023 227.908C143.464 224.642 143.076 221.317 141.894 218.24C140.712 215.163 138.775 212.433 136.261 210.301C135.682 209.817 135.204 209.223 134.854 208.553C134.505 207.884 134.29 207.153 134.223 206.4C134.156 205.648 134.238 204.89 134.465 204.17C134.691 203.449 135.056 202.781 135.541 202.201C136.025 201.622 136.619 201.144 137.288 200.795C137.958 200.445 138.689 200.231 139.441 200.164C140.193 200.097 140.952 200.179 141.672 200.405C142.392 200.631 143.061 200.997 143.64 201.481C148.542 205.588 152.059 211.105 153.712 217.282C155.366 223.459 155.075 229.995 152.881 236.001C150.686 242.007 146.693 247.19 141.447 250.846C136.2 254.501 129.955 256.451 123.56 256.429Z" fill="#F5B811"/>
<g opacity="0.1">
<path opacity="0.1" d="M123.707 185.341C125.242 185.34 126.715 185.939 127.814 187.01C128.913 188.082 129.549 189.54 129.587 191.074V220.767C129.549 222.301 128.913 223.759 127.814 224.83C126.715 225.902 125.242 226.501 123.707 226.5H123.56C122.026 226.501 120.552 225.902 119.454 224.83C118.355 223.759 117.719 222.301 117.68 220.767V191.221C117.719 189.687 118.355 188.229 119.454 187.157C120.552 186.086 122.026 185.487 123.56 185.488L123.707 185.341ZM123.707 182.401H123.56C121.246 182.4 119.025 183.309 117.375 184.932C115.725 186.554 114.779 188.76 114.74 191.074V220.767C114.779 223.081 115.725 225.287 117.375 226.909C119.025 228.532 121.246 229.441 123.56 229.44H123.854C126.168 229.441 128.39 228.532 130.04 226.909C131.69 225.287 132.636 223.081 132.674 220.767V191.221C132.636 188.907 131.69 186.701 130.04 185.079C128.39 183.456 126.168 182.547 123.854 182.548L123.707 182.401Z" fill="#F5B811"/>
<path opacity="0.1" d="M139.877 200.188C141.234 200.184 142.547 200.663 143.582 201.54C148.409 205.614 151.881 211.062 153.536 217.158C155.191 223.254 154.951 229.71 152.848 235.666C150.745 241.623 146.877 246.798 141.761 250.503C136.645 254.207 130.522 256.267 124.206 256.407C117.891 256.546 111.683 254.76 106.408 251.285C101.132 247.811 97.0401 242.812 94.6751 236.955C92.3101 231.097 91.7847 224.658 93.1685 218.495C94.5523 212.332 97.7798 206.736 102.422 202.451C102.975 201.939 103.624 201.54 104.332 201.279C105.04 201.018 105.792 200.899 106.546 200.929C107.3 200.959 108.04 201.137 108.725 201.454C109.41 201.771 110.025 202.22 110.536 202.775C111.532 203.913 112.052 205.391 111.986 206.903C111.92 208.414 111.275 209.842 110.183 210.889C108.169 212.713 106.562 214.942 105.468 217.429C104.374 219.917 103.816 222.607 103.833 225.324C103.84 228.621 104.677 231.862 106.266 234.749C107.856 237.637 110.146 240.078 112.927 241.848C115.707 243.618 118.888 244.66 122.177 244.877C125.466 245.094 128.757 244.48 131.746 243.092C134.735 241.703 137.327 239.584 139.282 236.931C141.238 234.277 142.494 231.174 142.935 227.908C143.376 224.642 142.987 221.317 141.806 218.24C140.624 215.163 138.687 212.433 136.173 210.301C135.276 209.544 134.634 208.531 134.332 207.397C134.03 206.264 134.082 205.065 134.483 203.963C134.883 202.86 135.613 201.907 136.572 201.232C137.531 200.557 138.675 200.192 139.848 200.188H139.877ZM139.877 197.248C138.133 197.321 136.449 197.91 135.04 198.941C133.631 199.972 132.559 201.398 131.961 203.038C131.363 204.678 131.265 206.459 131.68 208.155C132.095 209.851 133.004 211.386 134.291 212.565C136.15 214.128 137.641 216.082 138.658 218.287C139.674 220.493 140.191 222.896 140.171 225.324C140.171 229.753 138.412 234.001 135.28 237.132C132.149 240.264 127.901 242.024 123.472 242.024C119.043 242.024 114.796 240.264 111.664 237.132C108.532 234.001 106.773 229.753 106.773 225.324C106.766 223.012 107.244 220.723 108.176 218.607C109.107 216.49 110.472 214.592 112.183 213.035C113.02 212.263 113.698 211.333 114.176 210.299C114.655 209.265 114.925 208.147 114.971 207.009C115.018 205.87 114.84 204.734 114.447 203.665C114.054 202.595 113.454 201.613 112.682 200.776C111.91 199.938 110.981 199.26 109.947 198.782C108.913 198.303 107.794 198.033 106.656 197.987C105.517 197.94 104.381 198.118 103.312 198.511C102.242 198.904 101.26 199.504 100.423 200.276C95.3254 204.958 91.7763 211.082 90.2482 217.832C88.7202 224.583 89.2857 231.638 91.8697 238.059C94.4536 244.48 98.9331 249.961 104.711 253.771C110.489 257.581 117.291 259.539 124.21 259.385C131.13 259.232 137.838 256.972 143.441 252.909C149.044 248.846 153.275 243.171 155.571 236.642C157.866 230.112 158.118 223.039 156.291 216.363C154.464 209.687 150.646 203.727 145.346 199.276C143.784 197.956 141.804 197.237 139.76 197.248H139.877Z" fill="#F5B811"/>
</g>
<defs>
<linearGradient id="paint0_linear_741_108" x1="122.09" y1="297.06" x2="122.09" y2="147.121" gradientUnits="userSpaceOnUse">
<stop stop-color="#24275D"/>
<stop offset="1" stop-color="#24275D"/>
</linearGradient>
<linearGradient id="paint1_linear_741_108" x1="-1421.4" y1="-91.0182" x2="-1421.4" y2="-240.958" gradientUnits="userSpaceOnUse">
<stop/>
<stop offset="1" stop-color="white"/>
</linearGradient>
<linearGradient id="paint2_linear_741_108" x1="122.09" y1="299.304" x2="122.09" y2="144.877" gradientUnits="userSpaceOnUse">
<stop/>
<stop offset="1" stop-color="white"/>
</linearGradient>
</defs>
</svg>
