<svg width="17" height="16" viewBox="0 0 17 16" fill="none" xmlns="http://www.w3.org/2000/svg">
<path d="M15.3408 5.64379C13.8067 5.64379 13.1795 4.55892 13.9423 3.22826C14.383 2.45698 14.1203 1.47382 13.349 1.03309L11.8827 0.194007C11.2132 -0.204345 10.3487 0.0329711 9.95031 0.702541L9.85708 0.863576C9.09428 2.19424 7.8399 2.19424 7.06862 0.863576L6.97539 0.702541C6.59399 0.0329711 5.72948 -0.204345 5.05991 0.194007L3.59364 1.03309C2.82236 1.47382 2.55962 2.46546 3.00035 3.23673C3.77163 4.55892 3.14443 5.64379 1.61036 5.64379C0.728899 5.64379 0 6.36422 0 7.25415V8.74585C0 9.62731 0.720423 10.3562 1.61036 10.3562C3.14443 10.3562 3.77163 11.4411 3.00035 12.7717C2.55962 13.543 2.82236 14.5262 3.59364 14.9669L5.05991 15.806C5.72948 16.2043 6.59399 15.967 6.99234 15.2975L7.08557 15.1364C7.84837 13.8058 9.10275 13.8058 9.87403 15.1364L9.96726 15.2975C10.3656 15.967 11.2301 16.2043 11.8997 15.806L13.366 14.9669C14.1372 14.5262 14.4 13.5345 13.9593 12.7717C13.188 11.4411 13.8152 10.3562 15.3492 10.3562C16.2307 10.3562 16.9596 9.63578 16.9596 8.74585V7.25415C16.9511 6.37269 16.2307 5.64379 15.3408 5.64379ZM8.47556 10.7546C6.95844 10.7546 5.72101 9.51713 5.72101 8C5.72101 6.48287 6.95844 5.24544 8.47556 5.24544C9.99269 5.24544 11.2301 6.48287 11.2301 8C11.2301 9.51713 9.99269 10.7546 8.47556 10.7546Z" fill="#8A8A8A"/>
</svg>
