<svg width="164" height="131" viewBox="0 0 164 131" fill="none" xmlns="http://www.w3.org/2000/svg">
<path d="M116.58 31.8042C118.566 32.7691 120.341 34.1173 121.805 35.7711C123.267 37.425 124.389 39.3517 125.104 41.4407C125.819 43.5296 126.115 45.7394 125.973 47.9429C125.831 50.1464 125.255 52.3001 124.277 54.2799C116.79 69.6633 101.068 80.842 83.4079 81.3884C81.3178 81.4525 79.2257 81.3798 77.1451 81.1709C69.9145 80.4279 62.9544 78.0186 56.8118 74.1322C50.6692 70.2458 45.5113 64.988 41.7433 58.7722L37.9361 50.9259C51.3459 50.9259 59.6064 50.9259 74.3074 42.2516C74.3162 42.2464 74.325 42.2412 74.3337 42.236C76.2155 41.094 78.0351 39.8526 79.7848 38.517C80.0232 38.3356 80.2603 38.152 80.4966 37.9673C81.2674 37.3621 82.0225 36.7377 82.7618 36.094C84.8069 34.2743 87.1026 32.7571 89.578 31.5889C90.1388 31.3333 90.7072 31.0944 91.28 30.8722C95.044 29.4144 99.0544 28.6791 103.102 28.7113C107.766 28.7484 112.365 29.8037 116.578 31.8035L116.58 31.8042Z" fill="#24275D"/>
<path d="M74.3086 42.2516C64.7278 48.05 53.7392 51.1073 42.5404 51.0905C40.9843 51.0905 39.4419 51.0332 37.9133 50.9187C33.8249 39.9686 33.9483 27.8903 38.2595 17.0261C40.0335 24.2785 44.1899 30.7259 50.0632 35.3357C55.9364 39.9456 63.1867 42.4511 70.653 42.4511C71.8742 42.4501 73.0946 42.3836 74.3086 42.2516Z" fill="#FFC10B"/>
<path d="M68.8313 21.5284C74.6368 21.5284 79.3431 16.8221 79.3431 11.0166C79.3431 5.21106 74.6368 0.504761 68.8313 0.504761C63.0258 0.504761 58.3195 5.21106 58.3195 11.0166C58.3195 16.8221 63.0258 21.5284 68.8313 21.5284Z" fill="#FFC10B"/>
<path d="M31.2882 112.216C32.7344 112.216 33.9066 111.046 33.9066 109.603C33.9066 108.16 32.7344 106.99 31.2882 106.99C29.842 106.99 28.6697 108.16 28.6697 109.603C28.6697 111.046 29.842 112.216 31.2882 112.216Z" fill="#24275D"/>
<path d="M0.17395 129.843V109.155H14.056V113.067H4.8413V117.396H13.0388V121.308H4.8413V129.845L0.17395 129.843Z" fill="#24275D"/>
<path d="M25.9333 118.081C25.5339 117.982 25.0653 117.878 24.5273 117.768C23.9558 117.656 23.3744 117.601 22.7919 117.604C22.4566 117.607 22.1218 117.632 21.7895 117.678C21.4916 117.711 21.1966 117.766 20.9071 117.843V129.843H16.4492V114.976C17.3765 114.661 18.3202 114.397 19.2764 114.185C20.4702 113.925 21.6895 113.8 22.9113 113.812C23.1505 113.812 23.4397 113.826 23.779 113.856C24.1183 113.886 24.4573 113.925 24.7961 113.975C25.1354 114.025 25.4744 114.085 25.8132 114.154C26.1097 114.211 26.4003 114.296 26.6809 114.408L25.9333 118.081Z" fill="#24275D"/>
<path d="M33.5327 129.843H29.0747V114.141H33.5327V129.843Z" fill="#24275D"/>
<path d="M36.9726 122.111C36.9463 120.862 37.1647 119.62 37.6155 118.455C37.9985 117.48 38.5735 116.592 39.3063 115.843C39.9909 115.155 40.811 114.616 41.7147 114.26C42.6044 113.906 43.5537 113.724 44.5118 113.724C45.4891 113.674 46.4658 113.83 47.3784 114.182C48.2909 114.535 49.1186 115.075 49.8075 115.769C51.1036 117.132 51.7519 119.137 51.7523 121.784C51.7523 122.043 51.7423 122.327 51.7223 122.635C51.7023 122.943 51.6823 123.216 51.6623 123.456H41.5471C41.5865 123.892 41.7223 124.313 41.9448 124.69C42.1673 125.067 42.4709 125.39 42.8337 125.635C43.7417 126.215 44.8085 126.496 45.8849 126.441C46.693 126.442 47.4993 126.367 48.2933 126.217C48.955 126.105 49.6021 125.92 50.2229 125.665L50.8211 129.278C50.5125 129.423 50.1924 129.543 49.864 129.635C49.4263 129.764 48.9819 129.868 48.5328 129.949C48.0437 130.038 47.5201 130.113 46.9621 130.172C46.4056 130.232 45.8464 130.262 45.2868 130.262C44.0263 130.29 42.7723 130.077 41.5917 129.635C40.6086 129.26 39.72 128.675 38.9886 127.919C38.294 127.182 37.7727 126.3 37.4626 125.337C37.1274 124.295 36.9619 123.206 36.9726 122.111ZM47.4438 120.41C47.4241 120.036 47.3588 119.664 47.249 119.305C47.144 118.956 46.9711 118.632 46.7401 118.35C46.5012 118.064 46.2059 117.831 45.8724 117.663C45.4663 117.472 45.0202 117.38 44.5712 117.395C44.1288 117.383 43.6894 117.47 43.2846 117.648C42.941 117.806 42.6351 118.035 42.3869 118.32C42.1433 118.606 41.9555 118.935 41.8333 119.29C41.7048 119.654 41.6097 120.029 41.5492 120.409L47.4438 120.41Z" fill="#24275D"/>
<path d="M55.1921 114.675C56.1563 114.412 57.1354 114.208 58.1241 114.062C59.3712 113.869 60.6317 113.775 61.8937 113.779C63.0285 113.745 64.1597 113.923 65.2298 114.301C66.0496 114.602 66.7766 115.111 67.3387 115.779C67.871 116.444 68.2491 117.219 68.4459 118.048C68.6745 119.005 68.7849 119.988 68.7747 120.973V129.839H64.3167V121.514C64.3976 120.467 64.2017 119.417 63.7485 118.47C63.5034 118.148 63.1784 117.897 62.8058 117.739C62.4332 117.582 62.0258 117.525 61.6243 117.574C61.305 117.574 60.966 117.588 60.6071 117.618C60.2483 117.648 59.9292 117.682 59.6501 117.723V129.843H55.1921V114.675Z" fill="#24275D"/>
<path d="M86.696 129.336C86.2969 129.456 85.8382 129.57 85.3203 129.68C84.8023 129.789 84.2587 129.884 83.6896 129.963C83.1214 130.042 82.5429 130.107 81.9542 130.157C81.3655 130.208 80.8021 130.233 80.2641 130.232C79.0828 130.251 77.9075 130.059 76.794 129.665C75.8264 129.319 74.9477 128.763 74.2208 128.038C73.5077 127.308 72.9618 126.432 72.6208 125.47C72.2378 124.382 72.0504 123.235 72.0673 122.082C72.052 120.915 72.2134 119.753 72.5462 118.634C72.8269 117.681 73.2946 116.793 73.922 116.022C74.5151 115.309 75.2686 114.747 76.121 114.38C77.0632 113.987 78.0767 113.794 79.0976 113.813C79.6562 113.806 80.2134 113.867 80.7576 113.992C81.2652 114.118 81.7609 114.288 82.2389 114.5V107.395L86.6969 106.678L86.696 129.336ZM76.6139 121.873C76.5563 123.048 76.8818 124.21 77.5416 125.186C77.8612 125.605 78.2797 125.939 78.7598 126.158C79.2399 126.377 79.7667 126.473 80.2934 126.439C80.6922 126.439 81.0613 126.425 81.4006 126.396C81.7399 126.365 82.0191 126.331 82.2383 126.29V118.201C81.8994 117.997 81.5312 117.846 81.1465 117.753C80.7025 117.634 80.2449 117.574 79.7853 117.574C77.6705 117.574 76.6134 119.007 76.6139 121.873Z" fill="#24275D"/>
<path d="M95.4015 126.652C95.9898 126.688 96.5798 126.607 97.1362 126.413C97.3059 126.329 97.4454 126.196 97.5367 126.03C97.628 125.864 97.6659 125.675 97.6453 125.487C97.6289 125.286 97.56 125.093 97.4437 124.928C97.3283 124.762 97.1707 124.631 96.9872 124.547C96.3464 124.185 95.6754 123.88 94.982 123.637C94.336 123.4 93.7012 123.131 93.0828 122.831C92.5488 122.576 92.0587 122.238 91.6315 121.831C91.2284 121.437 90.9131 120.964 90.7038 120.442C90.4695 119.822 90.3576 119.163 90.3748 118.501C90.349 117.831 90.485 117.163 90.771 116.555C91.0578 115.948 91.4859 115.417 92.0199 115.009C93.3386 114.086 94.9295 113.634 96.5376 113.725C97.4609 113.722 98.3817 113.807 99.2895 113.979C100.002 114.104 100.702 114.288 101.383 114.531L100.605 117.993C100.05 117.805 99.4859 117.644 98.914 117.516C98.2413 117.37 97.554 117.3 96.8649 117.307C95.4687 117.307 94.7701 117.694 94.7701 118.47C94.7676 118.634 94.7977 118.797 94.8606 118.949C94.9416 119.113 95.0656 119.252 95.2198 119.352C95.4515 119.511 95.6969 119.651 95.9528 119.77C96.2611 119.92 96.6547 120.085 97.1336 120.265C97.9657 120.564 98.7762 120.92 99.5565 121.334C100.119 121.628 100.63 122.012 101.067 122.471C101.426 122.859 101.692 123.322 101.846 123.827C102.004 124.389 102.079 124.97 102.071 125.553C102.108 126.241 101.967 126.925 101.659 127.542C101.352 128.158 100.891 128.684 100.32 129.069C98.8244 129.949 97.1009 130.363 95.3679 130.26C94.1965 130.284 93.026 130.165 91.883 129.902C91.2266 129.75 90.5815 129.55 89.9527 129.305L90.7004 125.693C91.4575 125.991 92.2387 126.226 93.0346 126.394C93.8123 126.563 94.6056 126.649 95.4015 126.652Z" fill="#24275D"/>
<path d="M132.951 108.917C136.042 108.917 138.415 109.459 140.071 110.544C141.726 111.628 142.554 113.405 142.554 115.873C142.554 118.36 141.717 120.157 140.041 121.261C138.365 122.365 135.972 122.918 132.861 122.918H131.395V129.844H126.727V109.453C127.795 109.248 128.874 109.109 129.959 109.035C131.096 108.956 132.093 108.917 132.951 108.917ZM133.25 112.887C132.911 112.887 132.576 112.897 132.247 112.917C131.919 112.936 131.635 112.957 131.395 112.977V118.948H132.861C134.113 119.019 135.364 118.794 136.512 118.291C136.93 118.044 137.269 117.682 137.486 117.247C137.704 116.813 137.791 116.326 137.738 115.843C137.756 115.346 137.649 114.854 137.424 114.41C137.213 114.031 136.903 113.716 136.526 113.5C136.086 113.253 135.605 113.091 135.105 113.022C134.492 112.929 133.874 112.883 133.253 112.887H133.25Z" fill="#24275D"/>
<path d="M159.907 129.843C158.57 127.476 157.124 125.137 155.57 122.829C154.041 120.556 152.383 118.373 150.603 116.29V129.843H145.996V109.155H149.795C150.453 109.812 151.182 110.618 151.98 111.573C152.778 112.529 153.59 113.549 154.418 114.633C155.246 115.719 156.068 116.843 156.886 118.007C157.705 119.171 158.472 120.29 159.191 121.365V109.155H163.827V129.843H159.907Z" fill="#24275D"/>
<path d="M116.334 130.868C116.358 130.912 116.394 130.946 116.437 130.969C116.48 130.992 116.529 131.003 116.578 130.999C116.626 130.996 116.674 130.978 116.712 130.949C116.752 130.919 116.782 130.88 116.799 130.834L128.61 99.2612C128.65 99.1543 128.663 99.0389 128.649 98.9252C128.635 98.8115 128.594 98.703 128.528 98.6091C128.463 98.5144 128.375 98.4377 128.273 98.3843C128.172 98.3318 128.059 98.3034 127.944 98.3034C127.815 98.3034 127.688 98.3378 127.577 98.4041C127.467 98.4705 127.377 98.5652 127.315 98.678L116.246 118.637L106.681 111.377C106.575 111.299 106.445 111.262 106.313 111.272C106.182 111.282 106.058 111.339 105.965 111.432C105.88 111.516 105.825 111.626 105.808 111.745C105.792 111.863 105.814 111.984 105.873 112.089L116.334 130.868Z" fill="#FFC10B"/>
</svg>
