<svg width="39" height="39" viewBox="0 0 39 39" fill="none" xmlns="http://www.w3.org/2000/svg">
<mask id="mask0_617_1674" style="mask-type:alpha" maskUnits="userSpaceOnUse" x="0" y="0" width="39" height="39">
<circle cx="19.5" cy="19.5" r="19.5" fill="#D9D9D9"/>
</mask>
<g mask="url(#mask0_617_1674)">
<path d="M44.7073 -0.122314H-5.29163V39.5211H44.7073V-0.122314Z" fill="white"/>
<path d="M44.7073 -0.615479H-5.29163V2.51747H44.7073V-0.615479Z" fill="url(#paint0_radial_617_1674)"/>
<path d="M44.7073 5.59125H-5.29163V8.72419H44.7073V5.59125Z" fill="url(#paint1_radial_617_1674)"/>
<path d="M44.7073 11.8013H-5.29163V14.9342H44.7073V11.8013Z" fill="url(#paint2_radial_617_1674)"/>
<path d="M44.7073 18.008H-5.29163V21.1442H44.7073V18.008Z" fill="url(#paint3_radial_617_1674)"/>
<path d="M44.7073 24.2147H-5.29163V27.351H44.7073V24.2147Z" fill="url(#paint4_radial_617_1674)"/>
<path d="M44.7073 30.4247H-5.29163V33.5576H44.7073V30.4247Z" fill="url(#paint5_radial_617_1674)"/>
<path d="M44.7073 36.6314H-5.29163V39.7676H44.7073V36.6314Z" fill="url(#paint6_radial_617_1674)"/>
<path d="M25.3442 -0.615479H-5.29163V21.1442H25.3442V-0.615479Z" fill="url(#paint7_radial_617_1674)"/>
<path d="M2.53908 0.571289L2.83166 1.36028L3.66996 1.39644L3.00919 1.91586L3.23602 2.72457L2.53908 2.26104L1.83885 2.72457L2.06569 1.91586L1.40491 1.39644L2.2465 1.36028L2.53908 0.571289Z" fill="white"/>
<path d="M7.52944 0.571289L7.82203 1.36028L8.66362 1.39644L8.00284 1.91586L8.22967 2.72457L7.52944 2.26104L6.82922 2.72457L7.05605 1.91586L6.39856 1.39644L7.24015 1.36028L7.52944 0.571289Z" fill="white"/>
<path d="M12.5231 0.571289L12.8157 1.36028L13.6573 1.39644L12.9965 1.91586L13.2233 2.72457L12.5231 2.26104L11.8229 2.72457L12.0497 1.91586L11.3889 1.39644L12.2305 1.36028L12.5231 0.571289Z" fill="white"/>
<path d="M17.5169 0.571289L17.8094 1.36028L18.6477 1.39644L17.9903 1.91586L18.2171 2.72457L17.5169 2.26104L16.8166 2.72457L17.0435 1.91586L16.3827 1.39644L17.2243 1.36028L17.5169 0.571289Z" fill="white"/>
<path d="M22.5071 0.571289L22.7997 1.36028L23.6413 1.39644L22.9805 1.91586L23.2073 2.72457L22.5071 2.26104L21.8102 2.72457L22.037 1.91586L21.3762 1.39644L22.2145 1.36028L22.5071 0.571289Z" fill="white"/>
<path d="M0.165545 2.72787L0.458128 3.51686L1.29643 3.55303L0.638939 4.07573L0.865773 4.88445L0.165545 4.41763L-0.534683 4.88445L-0.307849 4.07573L-0.968628 3.55303L-0.127039 3.51686L0.165545 2.72787Z" fill="white"/>
<path d="M5.15591 2.72787L5.44849 3.51686L6.29008 3.55303L5.6293 4.07573L5.85614 4.88445L5.15591 4.41763L4.45897 4.88445L4.68252 4.07573L4.02502 3.55303L4.86661 3.51686L5.15591 2.72787Z" fill="white"/>
<path d="M10.1496 2.72787L10.4421 3.51686L11.2837 3.55303L10.6229 4.07573L10.8498 4.88445L10.1496 4.41763L9.44932 4.88445L9.67616 4.07573L9.01538 3.55303L9.85697 3.51686L10.1496 2.72787Z" fill="white"/>
<path d="M15.1432 2.72787L15.4358 3.51686L16.2774 3.55303L15.6166 4.07573L15.8434 4.88445L15.1432 4.41763L14.443 4.88445L14.6698 4.07573L14.009 3.55303L14.8506 3.51686L15.1432 2.72787Z" fill="white"/>
<path d="M20.1336 2.72787L20.4262 3.51686L21.2677 3.55303L20.607 4.07573L20.8371 4.88445L20.1336 4.41763L19.4366 4.88445L19.6635 4.07573L19.0027 3.55303L19.8443 3.51686L20.1336 2.72787Z" fill="white"/>
<path d="M2.53908 4.88773L2.83166 5.67672L3.66996 5.70959L3.00919 6.2323L3.23602 7.04101L2.53908 6.57419L1.83885 7.04101L2.06569 6.2323L1.40491 5.70959L2.2465 5.67672L2.53908 4.88773Z" fill="white"/>
<path d="M7.52944 4.88773L7.82203 5.67672L8.66362 5.70959L8.00284 6.2323L8.22967 7.04101L7.52944 6.57419L6.82922 7.04101L7.05605 6.2323L6.39856 5.70959L7.24015 5.67672L7.52944 4.88773Z" fill="white"/>
<path d="M12.5231 4.88773L12.8157 5.67672L13.6573 5.70959L12.9965 6.2323L13.2233 7.04101L12.5231 6.57419L11.8229 7.04101L12.0497 6.2323L11.3889 5.70959L12.2305 5.67672L12.5231 4.88773Z" fill="white"/>
<path d="M17.5169 4.88773L17.8094 5.67672L18.6477 5.70959L17.9903 6.2323L18.2171 7.04101L17.5169 6.57419L16.8166 7.04101L17.0435 6.2323L16.3827 5.70959L17.2243 5.67672L17.5169 4.88773Z" fill="white"/>
<path d="M22.5071 4.88773L22.7997 5.67672L23.6413 5.70959L22.9805 6.2323L23.2073 7.04101L22.5071 6.57419L21.8102 7.04101L22.037 6.2323L21.3762 5.70959L22.2145 5.67672L22.5071 4.88773Z" fill="white"/>
<path d="M0.165545 7.04428L0.458128 7.83327L1.29643 7.86615L0.638939 8.38885L0.865773 9.19757L0.165545 8.73075L-0.534683 9.19757L-0.307849 8.38885L-0.968628 7.86615L-0.127039 7.83327L0.165545 7.04428Z" fill="white"/>
<path d="M5.15591 7.04428L5.44849 7.83327L6.29008 7.86615L5.6293 8.38885L5.85614 9.19757L5.15591 8.73075L4.45897 9.19757L4.68252 8.38885L4.02502 7.86615L4.86661 7.83327L5.15591 7.04428Z" fill="white"/>
<path d="M10.1496 7.04428L10.4421 7.83327L11.2837 7.86615L10.6229 8.38885L10.8498 9.19757L10.1496 8.73075L9.44932 9.19757L9.67616 8.38885L9.01538 7.86615L9.85697 7.83327L10.1496 7.04428Z" fill="white"/>
<path d="M15.1432 7.04428L15.4358 7.83327L16.2774 7.86615L15.6166 8.38885L15.8434 9.19757L15.1432 8.73075L14.443 9.19757L14.6698 8.38885L14.009 7.86615L14.8506 7.83327L15.1432 7.04428Z" fill="white"/>
<path d="M20.1336 7.04428L20.4262 7.83327L21.2677 7.86615L20.607 8.38885L20.8371 9.19757L20.1336 8.73075L19.4366 9.19757L19.6635 8.38885L19.0027 7.86615L19.8443 7.83327L20.1336 7.04428Z" fill="white"/>
<path d="M2.53908 9.20084L2.83166 9.98982L3.66996 10.026L3.00919 10.5454L3.23602 11.3541L2.53908 10.8906L1.83885 11.3541L2.06569 10.5454L1.40491 10.026L2.2465 9.98982L2.53908 9.20084Z" fill="white"/>
<path d="M7.52944 9.20084L7.82203 9.98982L8.66362 10.026L8.00284 10.5454L8.22967 11.3541L7.52944 10.8906L6.82922 11.3541L7.05605 10.5454L6.39856 10.026L7.24015 9.98982L7.52944 9.20084Z" fill="white"/>
<path d="M12.5231 9.20084L12.8157 9.98982L13.6573 10.026L12.9965 10.5454L13.2233 11.3541L12.5231 10.8906L11.8229 11.3541L12.0497 10.5454L11.3889 10.026L12.2305 9.98982L12.5231 9.20084Z" fill="white"/>
<path d="M17.5169 9.20084L17.8094 9.98982L18.6477 10.026L17.9903 10.5454L18.2171 11.3541L17.5169 10.8906L16.8166 11.3541L17.0435 10.5454L16.3827 10.026L17.2243 9.98982L17.5169 9.20084Z" fill="white"/>
<path d="M22.5071 9.20084L22.7997 9.98982L23.6413 10.026L22.9805 10.5454L23.2073 11.3541L22.5071 10.8906L21.8102 11.3541L22.037 10.5454L21.3762 10.026L22.2145 9.98982L22.5071 9.20084Z" fill="white"/>
<path d="M0.165545 11.3574L0.458128 12.1464L1.29643 12.1825L0.638939 12.702L0.865773 13.514L0.165545 13.0471L-0.534683 13.514L-0.307849 12.702L-0.968628 12.1825L-0.127039 12.1464L0.165545 11.3574Z" fill="white"/>
<path d="M5.15591 11.3574L5.44849 12.1464L6.29008 12.1825L5.6293 12.702L5.85614 13.514L5.15591 13.0471L4.45897 13.514L4.68252 12.702L4.02502 12.1825L4.86661 12.1464L5.15591 11.3574Z" fill="white"/>
<path d="M10.1496 11.3574L10.4421 12.1464L11.2837 12.1825L10.6229 12.702L10.8498 13.514L10.1496 13.0471L9.44932 13.514L9.67616 12.702L9.01538 12.1825L9.85697 12.1464L10.1496 11.3574Z" fill="white"/>
<path d="M15.1432 11.3574L15.4358 12.1464L16.2774 12.1825L15.6166 12.702L15.8434 13.514L15.1432 13.0471L14.443 13.514L14.6698 12.702L14.009 12.1825L14.8506 12.1464L15.1432 11.3574Z" fill="white"/>
<path d="M20.1336 11.3574L20.4262 12.1464L21.2677 12.1825L20.607 12.702L20.8371 13.514L20.1336 13.0471L19.4366 13.514L19.6635 12.702L19.0027 12.1825L19.8443 12.1464L20.1336 11.3574Z" fill="white"/>
<path d="M2.53908 13.5173L2.83166 14.3063L3.66996 14.3392L3.00919 14.8619L3.23602 15.6706L2.53908 15.2038L1.83885 15.6706L2.06569 14.8619L1.40491 14.3392L2.2465 14.3063L2.53908 13.5173Z" fill="white"/>
<path d="M7.52944 13.5173L7.82203 14.3063L8.66362 14.3392L8.00284 14.8619L8.22967 15.6706L7.52944 15.2038L6.82922 15.6706L7.05605 14.8619L6.39856 14.3392L7.24015 14.3063L7.52944 13.5173Z" fill="white"/>
<path d="M12.5231 13.5173L12.8157 14.3063L13.6573 14.3392L12.9965 14.8619L13.2233 15.6706L12.5231 15.2038L11.8229 15.6706L12.0497 14.8619L11.3889 14.3392L12.2305 14.3063L12.5231 13.5173Z" fill="white"/>
<path d="M17.5169 13.5173L17.8094 14.3063L18.6477 14.3392L17.9903 14.8619L18.2171 15.6706L17.5169 15.2038L16.8166 15.6706L17.0435 14.8619L16.3827 14.3392L17.2243 14.3063L17.5169 13.5173Z" fill="white"/>
<path d="M22.5071 13.5173L22.7997 14.3063L23.6413 14.3392L22.9805 14.8619L23.2073 15.6706L22.5071 15.2038L21.8102 15.6706L22.037 14.8619L21.3762 14.3392L22.2145 14.3063L22.5071 13.5173Z" fill="white"/>
<path d="M0.165545 15.6739L0.458128 16.4629L1.29643 16.4958L0.638939 17.0185L0.865773 17.8272L0.165545 17.3604L-0.534683 17.8272L-0.307849 17.0185L-0.968628 16.4958L-0.127039 16.4629L0.165545 15.6739Z" fill="white"/>
<path d="M5.15591 15.6739L5.44849 16.4629L6.29008 16.4958L5.6293 17.0185L5.85614 17.8272L5.15591 17.3604L4.45897 17.8272L4.68252 17.0185L4.02502 16.4958L4.86661 16.4629L5.15591 15.6739Z" fill="white"/>
<path d="M10.1496 15.6739L10.4421 16.4629L11.2837 16.4958L10.6229 17.0185L10.8498 17.8272L10.1496 17.3604L9.44932 17.8272L9.67616 17.0185L9.01538 16.4958L9.85697 16.4629L10.1496 15.6739Z" fill="white"/>
<path d="M15.1432 15.6739L15.4358 16.4629L16.2774 16.4958L15.6166 17.0185L15.8434 17.8272L15.1432 17.3604L14.443 17.8272L14.6698 17.0185L14.009 16.4958L14.8506 16.4629L15.1432 15.6739Z" fill="white"/>
<path d="M20.1336 15.6739L20.4262 16.4629L21.2677 16.4958L20.607 17.0185L20.8371 17.8272L20.1336 17.3604L19.4366 17.8272L19.6635 17.0185L19.0027 16.4958L19.8443 16.4629L20.1336 15.6739Z" fill="white"/>
<path d="M2.53908 17.8304L2.83166 18.6194L3.66996 18.6523L3.00919 19.175L3.23602 19.9837L2.53908 19.5169L1.83885 19.9837L2.06569 19.175L1.40491 18.6523L2.2465 18.6194L2.53908 17.8304Z" fill="white"/>
<path d="M7.52944 17.8304L7.82203 18.6194L8.66362 18.6523L8.00284 19.175L8.22967 19.9837L7.52944 19.5169L6.82922 19.9837L7.05605 19.175L6.39856 18.6523L7.24015 18.6194L7.52944 17.8304Z" fill="white"/>
<path d="M12.5231 17.8304L12.8157 18.6194L13.6573 18.6523L12.9965 19.175L13.2233 19.9837L12.5231 19.5169L11.8229 19.9837L12.0497 19.175L11.3889 18.6523L12.2305 18.6194L12.5231 17.8304Z" fill="white"/>
<path d="M17.5169 17.8304L17.8094 18.6194L18.6477 18.6523L17.9903 19.175L18.2171 19.9837L17.5169 19.5169L16.8166 19.9837L17.0435 19.175L16.3827 18.6523L17.2243 18.6194L17.5169 17.8304Z" fill="white"/>
<path d="M22.5071 17.8304L22.7997 18.6194L23.6413 18.6523L22.9805 19.175L23.2073 19.9837L22.5071 19.5169L21.8102 19.9837L22.037 19.175L21.3762 18.6523L22.2145 18.6194L22.5071 17.8304Z" fill="white"/>
</g>
<defs>
<radialGradient id="paint0_radial_617_1674" cx="0" cy="0" r="1" gradientUnits="userSpaceOnUse" gradientTransform="translate(17.4576 8.05026) scale(22.8873)">
<stop stop-color="#F66B59"/>
<stop offset="0.04" stop-color="#F46655"/>
<stop offset="0.7" stop-color="#D41D1C"/>
<stop offset="1" stop-color="#C70006"/>
</radialGradient>
<radialGradient id="paint1_radial_617_1674" cx="0" cy="0" r="1" gradientUnits="userSpaceOnUse" gradientTransform="translate(17.4576 8.05027) scale(22.8873)">
<stop stop-color="#F66B59"/>
<stop offset="0.04" stop-color="#F46655"/>
<stop offset="0.7" stop-color="#D41D1C"/>
<stop offset="1" stop-color="#C70006"/>
</radialGradient>
<radialGradient id="paint2_radial_617_1674" cx="0" cy="0" r="1" gradientUnits="userSpaceOnUse" gradientTransform="translate(17.4576 8.05028) scale(22.884)">
<stop stop-color="#F66B59"/>
<stop offset="0.04" stop-color="#F46655"/>
<stop offset="0.7" stop-color="#D41D1C"/>
<stop offset="1" stop-color="#C70006"/>
</radialGradient>
<radialGradient id="paint3_radial_617_1674" cx="0" cy="0" r="1" gradientUnits="userSpaceOnUse" gradientTransform="translate(17.4576 8.05029) scale(22.884)">
<stop stop-color="#F66B59"/>
<stop offset="0.04" stop-color="#F46655"/>
<stop offset="0.7" stop-color="#D41D1C"/>
<stop offset="1" stop-color="#C70006"/>
</radialGradient>
<radialGradient id="paint4_radial_617_1674" cx="0" cy="0" r="1" gradientUnits="userSpaceOnUse" gradientTransform="translate(17.4576 8.0503) scale(22.884)">
<stop stop-color="#F66B59"/>
<stop offset="0.04" stop-color="#F46655"/>
<stop offset="0.7" stop-color="#D41D1C"/>
<stop offset="1" stop-color="#C70006"/>
</radialGradient>
<radialGradient id="paint5_radial_617_1674" cx="0" cy="0" r="1" gradientUnits="userSpaceOnUse" gradientTransform="translate(17.4576 8.05023) scale(22.8873)">
<stop stop-color="#F66B59"/>
<stop offset="0.04" stop-color="#F46655"/>
<stop offset="0.7" stop-color="#D41D1C"/>
<stop offset="1" stop-color="#C70006"/>
</radialGradient>
<radialGradient id="paint6_radial_617_1674" cx="0" cy="0" r="1" gradientUnits="userSpaceOnUse" gradientTransform="translate(17.4576 8.04699) scale(22.8873)">
<stop stop-color="#F66B59"/>
<stop offset="0.04" stop-color="#F46655"/>
<stop offset="0.7" stop-color="#D41D1C"/>
<stop offset="1" stop-color="#C70006"/>
</radialGradient>
<radialGradient id="paint7_radial_617_1674" cx="0" cy="0" r="1" gradientUnits="userSpaceOnUse" gradientTransform="translate(33.7272 22.0187) scale(37.7466)">
<stop offset="0.45" stop-color="#004394"/>
<stop offset="0.71" stop-color="#003377"/>
<stop offset="1" stop-color="#001D51"/>
</radialGradient>
</defs>
</svg>
