<svg width="120" height="25" viewBox="0 0 120 25" fill="none" xmlns="http://www.w3.org/2000/svg">
<path d="M22.8157 10.2246C23.8765 10.2246 24.7364 9.36464 24.7364 8.30387C24.7364 7.24311 23.8765 6.38319 22.8157 6.38319C21.7549 6.38319 20.895 7.24311 20.895 8.30387C20.895 9.36464 21.7549 10.2246 22.8157 10.2246Z" fill="#24275D"/>
<path d="M0 23.1768V7.97427H10.1789V10.8477H3.42217V14.0288H9.43288V16.9022H3.42217V23.1768H0Z" fill="#24275D"/>
<path d="M18.8877 14.5318C18.5949 14.4587 18.2513 14.3819 17.8569 14.3012C17.4377 14.2185 17.0113 14.1779 16.5841 14.1802C16.3383 14.1835 16.093 14.2019 15.8495 14.2355C15.6311 14.2594 15.4149 14.2999 15.2026 14.3565V23.1758H11.9338V12.2519C12.6138 12.0206 13.3058 11.8266 14.007 11.6707C14.8831 11.4796 15.7779 11.3875 16.6746 11.3964C16.8499 11.3964 17.062 11.4075 17.311 11.4297C17.56 11.4519 17.8086 11.4812 18.0569 11.5174C18.3053 11.5542 18.554 11.598 18.8029 11.6489C19.0206 11.6923 19.2337 11.7561 19.4394 11.8394L18.8877 14.5318Z" fill="#24275D"/>
<path d="M24.4602 23.1777H21.1914V11.6393H24.4602V23.1777Z" fill="#24275D"/>
<path d="M26.983 17.4948C26.9652 16.5764 27.127 15.6634 27.4594 14.8071C27.7398 14.0909 28.161 13.4382 28.6979 12.8874C29.2 12.3821 29.8015 11.9863 30.4642 11.7251C31.1167 11.4644 31.8129 11.3305 32.5155 11.3307C33.232 11.2938 33.9483 11.4085 34.6175 11.6674C35.2866 11.9263 35.8936 12.3235 36.3988 12.8331C37.4307 14.0653 37.9432 15.6506 37.8278 17.2537C37.8278 17.4443 37.8205 17.6526 37.8059 17.8787C37.7913 18.1048 37.7767 18.3059 37.7621 18.4818H30.3395C30.3683 18.8019 30.4678 19.1116 30.6309 19.3886C30.794 19.6656 31.0166 19.9029 31.2826 20.0833C31.9486 20.5094 32.7311 20.7165 33.5206 20.6759C34.1132 20.6765 34.7046 20.6213 35.2869 20.5111C35.7721 20.4285 36.2466 20.2924 36.7017 20.1052L37.1409 22.7595C36.9146 22.8664 36.6797 22.9543 36.4388 23.0225C36.1177 23.117 35.7917 23.1939 35.4622 23.253C35.104 23.3165 34.7201 23.3715 34.3104 23.4178C33.9025 23.4616 33.4926 23.4835 33.0823 23.4836C32.1581 23.5035 31.2385 23.347 30.3728 23.0225C29.6531 22.7463 29.0027 22.3157 28.4674 21.761C27.9582 21.2194 27.5761 20.5711 27.3489 19.8632C27.101 19.0984 26.9775 18.2987 26.983 17.4948ZM34.661 16.2448C34.6465 15.9694 34.5986 15.6968 34.5181 15.4331C34.4413 15.1768 34.3147 14.9382 34.1456 14.7309C33.9704 14.5207 33.7537 14.3488 33.5092 14.226C33.2117 14.0856 32.8852 14.018 32.5564 14.0288C32.2318 14.0216 31.9097 14.0867 31.6133 14.2193C31.3613 14.3353 31.1369 14.5035 30.9549 14.7128C30.7763 14.9229 30.6387 15.1647 30.5491 15.4255C30.4547 15.6926 30.3849 15.9678 30.3404 16.2477L34.661 16.2448Z" fill="#24275D"/>
<path d="M40.343 12.0329C41.0501 11.8401 41.7682 11.6899 42.4933 11.5832C43.4074 11.4414 44.3312 11.3717 45.2562 11.3745C46.0879 11.3495 46.9171 11.4787 47.7018 11.7556C48.303 11.977 48.836 12.3513 49.2481 12.8417C49.6384 13.3308 49.9156 13.9002 50.0598 14.509C50.2275 15.2133 50.3084 15.9354 50.3008 16.6593V23.175H47.034V17.0547C47.0932 16.285 46.9493 15.5133 46.6167 14.8167C46.437 14.5807 46.1987 14.3957 45.9255 14.2802C45.6522 14.1647 45.3535 14.1227 45.059 14.1584C44.8246 14.1584 44.5759 14.1695 44.313 14.1917C44.05 14.214 43.816 14.2397 43.6108 14.2689V23.1759H40.342L40.343 12.0329Z" fill="#24275D"/>
<path d="M63.4427 22.8043C63.1499 22.892 62.8136 22.9761 62.4337 23.0568C62.0539 23.1374 61.6554 23.207 61.2381 23.2654C60.8214 23.3239 60.3971 23.3715 59.9652 23.4083C59.5333 23.4452 59.1205 23.4636 58.7267 23.4636C57.8603 23.4775 56.9985 23.3362 56.182 23.0463C55.4727 22.7918 54.8284 22.3835 54.2956 21.8506C53.7725 21.3141 53.3721 20.6705 53.1218 19.9643C52.841 19.1648 52.7036 18.322 52.716 17.4748C52.7049 16.6172 52.8234 15.7628 53.0675 14.9405C53.2733 14.2401 53.6163 13.5876 54.0765 13.0208C54.5113 12.4974 55.0636 12.0841 55.6885 11.8147C56.3794 11.5263 57.1226 11.3846 57.8712 11.3983C58.2808 11.3934 58.6896 11.4375 59.0887 11.5298C59.4609 11.6223 59.8243 11.7469 60.1748 11.9023V6.6814L63.4436 6.15454L63.4427 22.8043ZM56.0495 17.3195C56.0071 18.1834 56.2458 19.0378 56.7298 19.7547C56.9641 20.0627 57.271 20.3079 57.623 20.4686C57.9751 20.6294 58.3614 20.7006 58.7476 20.6759C59.0405 20.6759 59.311 20.6648 59.5594 20.6426C59.8077 20.6203 60.0126 20.5946 60.1739 20.5654V14.6204C59.9255 14.4707 59.6556 14.3598 59.3736 14.2917C59.048 14.2045 58.7123 14.1603 58.3751 14.1603C56.8247 14.1584 56.0495 15.2114 56.0495 17.3195Z" fill="#24275D"/>
<path d="M69.8268 20.8293C70.2582 20.8558 70.6906 20.7962 71.0987 20.654C71.2232 20.5926 71.3257 20.4944 71.3925 20.3727C71.4593 20.251 71.4871 20.1118 71.4722 19.9738C71.4603 19.8261 71.4093 19.6843 71.3244 19.5629C71.2395 19.4415 71.1238 19.3449 70.9892 19.2831C70.5196 19.0182 70.0277 18.795 69.5191 18.6162C69.0451 18.4423 68.5802 18.2445 68.1262 18.0236C67.7349 17.8366 67.3757 17.5887 67.062 17.289C66.7668 16.9999 66.5352 16.6524 66.3818 16.2686C66.2099 15.8123 66.1281 15.327 66.1408 14.8396C66.1218 14.3465 66.2214 13.856 66.4313 13.4094C66.6412 12.9628 66.9552 12.5731 67.3469 12.273C68.3136 11.5949 69.4807 11.2626 70.6595 11.3297C71.3367 11.3289 72.0124 11.3927 72.6774 11.5203C73.1998 11.6121 73.7136 11.7479 74.2132 11.9262L73.6416 14.4709C73.2353 14.332 72.8218 14.215 72.403 14.1203C71.9095 14.0131 71.4056 13.9617 70.9006 13.9669C69.8767 13.9669 69.3648 14.2527 69.3648 14.8243C69.3625 14.9445 69.3849 15.0638 69.4305 15.1749C69.4899 15.2956 69.5807 15.398 69.6935 15.4712C69.8636 15.589 70.0434 15.6923 70.2308 15.7799C70.4569 15.8904 70.7456 16.0121 71.0968 16.1448C71.7073 16.3632 72.3011 16.6256 72.8736 16.9298C73.2863 17.1457 73.6607 17.428 73.9817 17.7654C74.2446 18.0504 74.44 18.391 74.5533 18.7619C74.6694 19.1747 74.7249 19.6022 74.7181 20.0309C74.7455 20.5356 74.6417 21.0388 74.4168 21.4915C74.1919 21.9441 73.8536 22.3308 73.4348 22.6138C72.3384 23.26 71.0744 23.5648 69.804 23.4893C68.9447 23.5073 68.0864 23.419 67.2488 23.2264C66.7673 23.1144 66.2945 22.9679 65.834 22.7881L66.3828 20.1338C66.939 20.3533 67.5126 20.5257 68.0977 20.6493C68.6662 20.7695 69.2457 20.8299 69.8268 20.8293Z" fill="#24275D"/>
<path d="M97.3595 7.79891C99.1783 7.68931 100.99 8.10429 102.58 8.99455C103.2 9.43119 103.694 10.0225 104.013 10.7096C104.332 11.3966 104.466 12.1554 104.401 12.9102C104.466 13.6736 104.33 14.4406 104.007 15.1352C103.683 15.8298 103.184 16.4277 102.558 16.8698C100.958 17.7747 99.1293 18.1975 97.2937 18.0873H96.219V23.1768H92.7969V8.19427C93.5796 8.04342 94.3709 7.94098 95.1663 7.8875C95.9996 7.82843 96.7307 7.79891 97.3595 7.79891ZM97.5786 10.7171C97.3296 10.7171 97.0847 10.7244 96.844 10.739C96.6033 10.7536 96.395 10.7682 96.219 10.7828V15.1701H97.2937C98.2114 15.2225 99.1284 15.0569 99.9699 14.6871C100.277 14.5055 100.525 14.2393 100.685 13.9202C100.844 13.6012 100.908 13.2429 100.869 12.8883C100.883 12.5236 100.803 12.1614 100.639 11.8356C100.484 11.5576 100.256 11.3271 99.9804 11.1687C99.6578 10.9879 99.3043 10.869 98.9381 10.8181C98.4886 10.7485 98.0344 10.7148 97.5796 10.7171H97.5786Z" fill="#24275D"/>
<path d="M117.126 23.1768C116.146 21.4365 115.085 19.7181 113.944 18.0216C112.824 16.3516 111.608 14.7475 110.303 13.2171V23.1768H106.925V7.97424H109.711C110.193 8.45695 110.727 9.04922 111.312 9.75105C111.897 10.4529 112.493 11.2024 113.1 11.9995C113.707 12.7966 114.31 13.6223 114.91 14.4765C115.511 15.3308 116.074 16.1533 116.6 16.9441V7.97136H120V23.1739L117.126 23.1768Z" fill="#24275D"/>
<path d="M85.178 23.9305C85.1961 23.9612 85.2224 23.9862 85.254 24.0027C85.2855 24.0192 85.3211 24.0265 85.3566 24.0238C85.3921 24.0211 85.4262 24.0086 85.4549 23.9875C85.4836 23.9665 85.5058 23.9378 85.5191 23.9047L94.1794 0.704075C94.2089 0.625171 94.2189 0.540266 94.2085 0.456648C94.1981 0.373031 94.1675 0.293185 94.1195 0.223963C94.0714 0.154742 94.0073 0.0982028 93.9326 0.0591967C93.8579 0.0201907 93.7749 -0.000123289 93.6906 5.62949e-07C93.5963 5.79527e-05 93.5038 0.0257114 93.4229 0.0741993C93.3421 0.122687 93.2759 0.192194 93.2314 0.275338L85.1142 14.9415L78.1022 9.6063C78.0242 9.54904 77.9283 9.52159 77.8318 9.52893C77.7354 9.53627 77.6447 9.5779 77.5763 9.6463C77.514 9.70853 77.4738 9.78933 77.4616 9.87649C77.4493 9.96364 77.4659 10.0524 77.5087 10.1293L85.178 23.9305Z" fill="#FFC10B"/>
</svg>
