<svg width="85" height="22" viewBox="0 0 85 22" fill="none" xmlns="http://www.w3.org/2000/svg">
<path d="M0 0H85V12C85 17.5228 80.5228 22 75 22H10C4.47715 22 0 17.5228 0 12V0Z" fill="#F5B811"/>
<path d="M23.8764 15.4338H15.0953V17H23.8764V15.4338Z" fill="#24275D"/>
<path d="M21.521 10.6659L19.486 4L17.4516 10.7463L12.2043 6.93146L15.0949 15.0837H23.8766L26.0897 9.30122L21.521 10.6659ZM18.0928 13.7806H15.2311V13.4519H18.0928V13.7806ZM20.0231 14.3937H19.0971L18.6341 13.4915L19.0971 12.5892H20.0231L20.4862 13.4915L20.0231 14.3937ZM23.8535 13.7812H20.9907V13.4519H23.8535V13.7812Z" fill="#24275D"/>
<path d="M36.6689 10.0195C36.6689 10.765 36.4248 11.3363 35.9365 11.7334C35.4482 12.1305 34.7533 12.3291 33.8516 12.3291H33.1094V15H31.9424V7.86133H33.998C34.89 7.86133 35.5573 8.04362 36 8.4082C36.446 8.77279 36.6689 9.3099 36.6689 10.0195ZM33.1094 11.3477H33.7295C34.3285 11.3477 34.7679 11.2435 35.0479 11.0352C35.3278 10.8268 35.4678 10.5013 35.4678 10.0586C35.4678 9.64844 35.3424 9.34245 35.0918 9.14062C34.8411 8.9388 34.4505 8.83789 33.9199 8.83789H33.1094V11.3477ZM40.4119 9.50195C40.643 9.50195 40.8335 9.51823 40.9832 9.55078L40.8709 10.6201C40.7081 10.5811 40.5389 10.5615 40.3631 10.5615C39.9041 10.5615 39.5314 10.7113 39.2449 11.0107C38.9617 11.3102 38.8201 11.6992 38.8201 12.1777V15H37.6727V9.59961H38.5711L38.7225 10.5518H38.7811C38.9601 10.2295 39.1928 9.97396 39.4793 9.78516C39.769 9.59635 40.0799 9.50195 40.4119 9.50195ZM44.0475 15.0977C43.2076 15.0977 42.5501 14.8535 42.0748 14.3652C41.6028 13.8737 41.3668 13.1982 41.3668 12.3389C41.3668 11.4567 41.5865 10.7633 42.026 10.2588C42.4654 9.75423 43.0693 9.50195 43.8375 9.50195C44.5504 9.50195 45.1135 9.71842 45.527 10.1514C45.9404 10.5843 46.1471 11.18 46.1471 11.9385V12.5586H42.5484C42.5647 13.0827 42.7063 13.4863 42.9732 13.7695C43.2402 14.0495 43.6161 14.1895 44.1012 14.1895C44.4202 14.1895 44.7164 14.1602 44.9898 14.1016C45.2665 14.0397 45.5628 13.9388 45.8785 13.7988V14.7314C45.5986 14.8649 45.3154 14.9593 45.0289 15.0146C44.7424 15.07 44.4153 15.0977 44.0475 15.0977ZM43.8375 10.3711C43.4729 10.3711 43.1799 10.4867 42.9586 10.7178C42.7405 10.9489 42.6103 11.2858 42.568 11.7285H45.0191C45.0126 11.2826 44.9052 10.9456 44.6969 10.7178C44.4885 10.4867 44.2021 10.3711 43.8375 10.3711ZM51.7016 15H50.5492V11.6699C50.5492 11.2565 50.4711 10.9489 50.3148 10.7471C50.1586 10.542 49.9145 10.4395 49.5824 10.4395C49.1397 10.4395 48.8142 10.5843 48.6059 10.874C48.4008 11.1605 48.2982 11.639 48.2982 12.3096V15H47.1508V9.59961H48.0492L48.2104 10.3076H48.2689C48.4187 10.0505 48.6352 9.85189 48.9184 9.71191C49.2048 9.57194 49.5189 9.50195 49.8607 9.50195C50.6908 9.50195 51.241 9.78516 51.5111 10.3516H51.5893C51.7488 10.0846 51.9734 9.8763 52.2631 9.72656C52.5528 9.57682 52.8848 9.50195 53.2592 9.50195C53.9037 9.50195 54.3725 9.66471 54.6654 9.99023C54.9617 10.3158 55.1098 10.8122 55.1098 11.4795V15H53.9623V11.6699C53.9623 11.2565 53.8826 10.9489 53.723 10.7471C53.5668 10.542 53.3227 10.4395 52.9906 10.4395C52.5447 10.4395 52.2175 10.5794 52.0092 10.8594C51.8041 11.1361 51.7016 11.5625 51.7016 12.1387V15ZM57.5588 15H56.4113V9.59961H57.5588V15ZM56.343 8.16895C56.343 7.96387 56.3983 7.80599 56.509 7.69531C56.6229 7.58464 56.784 7.5293 56.9924 7.5293C57.1942 7.5293 57.3505 7.58464 57.4611 7.69531C57.5751 7.80599 57.632 7.96387 57.632 8.16895C57.632 8.36426 57.5751 8.51888 57.4611 8.63281C57.3505 8.74349 57.1942 8.79883 56.9924 8.79883C56.784 8.79883 56.6229 8.74349 56.509 8.63281C56.3983 8.51888 56.343 8.36426 56.343 8.16895ZM62.7129 15L62.5518 14.292H62.4932C62.3337 14.5426 62.1058 14.7396 61.8096 14.8828C61.5166 15.026 61.1813 15.0977 60.8037 15.0977C60.1494 15.0977 59.6611 14.9349 59.3389 14.6094C59.0166 14.2839 58.8555 13.7907 58.8555 13.1299V9.59961H60.0127V12.9297C60.0127 13.3431 60.0973 13.654 60.2666 13.8623C60.4359 14.0674 60.7012 14.1699 61.0625 14.1699C61.5443 14.1699 61.8975 14.0267 62.1221 13.7402C62.3499 13.4505 62.4639 12.9671 62.4639 12.29V9.59961H63.6162V15H62.7129ZM69.5027 15H68.3504V11.6699C68.3504 11.2565 68.2723 10.9489 68.116 10.7471C67.9598 10.542 67.7156 10.4395 67.3836 10.4395C66.9409 10.4395 66.6154 10.5843 66.407 10.874C66.202 11.1605 66.0994 11.639 66.0994 12.3096V15H64.952V9.59961H65.8504L66.0115 10.3076H66.0701C66.2199 10.0505 66.4363 9.85189 66.7195 9.71191C67.006 9.57194 67.3201 9.50195 67.6619 9.50195C68.492 9.50195 69.0421 9.78516 69.3123 10.3516H69.3904C69.5499 10.0846 69.7745 9.8763 70.0643 9.72656C70.354 9.57682 70.686 9.50195 71.0604 9.50195C71.7049 9.50195 72.1736 9.66471 72.4666 9.99023C72.7628 10.3158 72.9109 10.8122 72.9109 11.4795V15H71.7635V11.6699C71.7635 11.2565 71.6837 10.9489 71.5242 10.7471C71.368 10.542 71.1238 10.4395 70.7918 10.4395C70.3458 10.4395 70.0187 10.5794 69.8104 10.8594C69.6053 11.1361 69.5027 11.5625 69.5027 12.1387V15Z" fill="#24275D"/>
</svg>
