<svg width="12" height="12" viewBox="0 0 12 12" fill="none" xmlns="http://www.w3.org/2000/svg">
<path d="M6 0C2.688 0 0 2.688 0 6C0 9.312 2.688 12 6 12C9.312 12 12 9.312 12 6C12 2.688 9.312 0 6 0ZM2.76 5.538C2.862 4.824 3.18 4.182 3.678 3.678C4.878 2.484 6.768 2.418 8.052 3.462V2.892C8.052 2.646 8.256 2.442 8.502 2.442C8.748 2.442 8.952 2.646 8.952 2.892V4.494C8.952 4.74 8.748 4.944 8.502 4.944H6.9C6.654 4.944 6.45 4.74 6.45 4.494C6.45 4.248 6.654 4.044 6.9 4.044H7.35C6.42 3.396 5.136 3.486 4.308 4.314C3.948 4.674 3.72 5.142 3.642 5.664C3.612 5.886 3.42 6.048 3.198 6.048C3.174 6.048 3.156 6.048 3.132 6.042C2.898 6.012 2.724 5.784 2.76 5.538ZM8.322 8.322C7.68 8.964 6.84 9.282 6 9.282C5.268 9.282 4.542 9.024 3.942 8.538V9.102C3.942 9.348 3.738 9.552 3.492 9.552C3.246 9.552 3.042 9.348 3.042 9.102V7.5C3.042 7.254 3.246 7.05 3.492 7.05H5.094C5.34 7.05 5.544 7.254 5.544 7.5C5.544 7.746 5.34 7.95 5.094 7.95H4.644C5.574 8.598 6.858 8.508 7.686 7.68C8.046 7.32 8.274 6.852 8.352 6.33C8.388 6.084 8.61 5.91 8.862 5.946C9.108 5.982 9.276 6.21 9.246 6.456C9.138 7.182 8.82 7.824 8.322 8.322Z" fill="white"/>
</svg>
