<svg width="22" height="21" viewBox="0 0 22 21" fill="none" xmlns="http://www.w3.org/2000/svg">
<path fill-rule="evenodd" clip-rule="evenodd" d="M11.5714 19.1C11.5714 19.7075 11.0789 20.2 10.4714 20.2L1.09998 20.2C0.492471 20.2 -1.62555e-05 19.7075 -1.63086e-05 19.1C-1.63617e-05 18.4925 0.492471 18 1.09998 18L10.4714 18C11.0789 18 11.5714 18.4925 11.5714 19.1Z" fill="#24275D"/>
<path fill-rule="evenodd" clip-rule="evenodd" d="M21.8572 10.1C21.8572 10.7075 21.3647 11.2 20.7572 11.2L1.10004 11.2C0.492523 11.2 3.61966e-05 10.7075 3.61435e-05 10.1C3.60903e-05 9.49249 0.492523 9 1.10004 9L20.7572 9C21.3647 9 21.8572 9.49248 21.8572 10.1Z" fill="#24275D"/>
<path fill-rule="evenodd" clip-rule="evenodd" d="M18 1.1C18 1.70751 17.5075 2.2 16.9 2.2L1.1 2.2C0.492489 2.2 1.86429e-06 1.70751 1.81118e-06 1.1C1.75807e-06 0.492485 0.492489 -1.56889e-06 1.1 -1.622e-06L16.9 -3.00328e-06C17.5075 -3.05639e-06 18 0.492484 18 1.1Z" fill="#24275D"/>
</svg>
