<svg width="66" height="66" viewBox="0 0 66 66" fill="none" xmlns="http://www.w3.org/2000/svg">
<path opacity="0.4" d="M33 66C51.2254 66 66 51.2254 66 33C66 14.7746 51.2254 0 33 0C14.7746 0 0 14.7746 0 33C0 51.2254 14.7746 66 33 66Z" fill="#EEEEEE"/>
<path d="M33 15.9677C25.9487 15.9677 20.2258 21.6982 20.2258 28.759C20.2258 35.6833 25.6421 41.3115 32.8297 41.5161C32.9319 41.5161 33.0682 41.5161 33.1363 41.5161C33.2044 41.5161 33.3066 41.5161 33.3747 41.5161C33.4088 41.5161 33.4429 41.5161 33.4429 41.5161C40.3239 41.2774 45.7402 35.6833 45.7742 28.759C45.7742 21.6982 40.0514 15.9677 33 15.9677Z" fill="#F5B811"/>
<path d="M55.3549 57.1776C49.486 62.6375 41.6387 66 33.0001 66C24.3615 66 16.5142 62.6375 10.6453 57.1776C11.4366 54.148 13.5797 51.3848 16.7121 49.2541C25.7133 43.1949 40.3528 43.1949 49.2881 49.2541C52.4534 51.3848 54.5636 54.148 55.3549 57.1776Z" fill="#F5B811"/>
</svg>
