<svg width="19" height="14" viewBox="0 0 19 14" fill="none" xmlns="http://www.w3.org/2000/svg">
<path fill-rule="evenodd" clip-rule="evenodd" d="M18.7071 6.12623C19.0976 6.51675 19.0976 7.14992 18.7071 7.54044L12.8738 13.3738C12.4832 13.7643 11.8501 13.7643 11.4596 13.3738C11.069 12.9832 11.069 12.3501 11.4596 11.9596L15.5858 7.83333L1 7.83333C0.447715 7.83333 -3.22836e-07 7.38562 -2.98694e-07 6.83333C-2.74553e-07 6.28105 0.447716 5.83333 1 5.83333L15.5858 5.83333L11.4596 1.70711C11.069 1.31658 11.069 0.683417 11.4596 0.292893C11.8501 -0.0976314 12.4832 -0.0976314 12.8738 0.292893L18.7071 6.12623Z" fill="#FFC10B"/>
</svg>
