<svg width="41" height="48" viewBox="0 0 41 48" fill="none" xmlns="http://www.w3.org/2000/svg">
<path d="M20.3369 0.469971L0.444702 8.77969C0.444702 8.77969 1.87446 24.1727 4.14373 33.8794C5.1931 38.3654 20.3369 48 20.3369 48C20.3369 48 35.4872 38.3654 36.5365 33.8794C38.8058 24.1727 40.2421 8.77969 40.2421 8.77969L20.3369 0.469971Z" fill="#202252"/>
<path d="M36.5497 33.8794C38.819 24.1727 40.2553 8.77969 40.2553 8.77969L20.3369 0.469971V48C20.3369 48 35.5003 38.3654 36.5497 33.8794Z" fill="#202252"/>
<path d="M20.3368 44.0255C13.7782 39.6902 7.9608 34.7844 7.37052 33.0792C5.76521 25.7715 4.62391 18.3696 3.95349 10.9178L20.3499 4.07062L36.7464 10.9178C36.0718 18.3825 34.9284 25.7974 33.3228 33.1185C32.726 34.7975 26.8954 39.6902 20.3368 44.0255Z" fill="#86CC68"/>
<path d="M20.3369 44.0255C26.8955 39.6902 32.7064 34.7975 33.2901 33.1185C34.9023 25.7978 36.0523 18.3829 36.7334 10.9178L20.3369 4.07062V44.0255Z" fill="#74BF54"/>
<path d="M19.3368 30.1641C19.0638 30.1642 18.7935 30.1103 18.5414 30.0057C18.2893 29.901 18.0604 29.7475 17.8677 29.5541L13.0143 24.7008C12.8208 24.5082 12.6672 24.2793 12.5624 24.0272C12.4576 23.775 12.4037 23.5047 12.4037 23.2317C12.4037 22.9586 12.4576 22.6883 12.5624 22.4362C12.6672 22.1841 12.8208 21.9551 13.0143 21.7625C13.2075 21.5688 13.437 21.4151 13.6896 21.3102C13.9423 21.2053 14.2132 21.1513 14.4868 21.1513C14.7603 21.1513 15.0312 21.2053 15.2839 21.3102C15.5365 21.4151 15.766 21.5688 15.9592 21.7625L19.3368 25.1468L27.5744 16.9092C27.7675 16.7155 27.997 16.5617 28.2497 16.4569C28.5024 16.352 28.7732 16.298 29.0468 16.298C29.3204 16.298 29.5913 16.352 29.8439 16.4569C30.0966 16.5617 30.3261 16.7155 30.5192 16.9092C30.7127 17.1018 30.8663 17.3307 30.9711 17.5828C31.0759 17.8349 31.1299 18.1053 31.1299 18.3783C31.1299 18.6514 31.0759 18.9217 30.9711 19.1738C30.8663 19.4259 30.7127 19.6549 30.5192 19.8474L20.8125 29.5541C20.6191 29.7483 20.3891 29.9022 20.1358 30.0069C19.8825 30.1116 19.6109 30.165 19.3368 30.1641Z" fill="white"/>
<path d="M20.8257 29.5541L30.5324 19.8474C30.7259 19.6549 30.8795 19.4259 30.9843 19.1738C31.0891 18.9217 31.1431 18.6514 31.1431 18.3783C31.1431 18.1053 31.0891 17.8349 30.9843 17.5828C30.8795 17.3307 30.7259 17.1018 30.5324 16.9092C30.3393 16.7155 30.1098 16.5617 29.8571 16.4569C29.6045 16.352 29.3336 16.298 29.06 16.298C28.7864 16.298 28.5155 16.352 28.2629 16.4569C28.0102 16.5617 27.7807 16.7155 27.5876 16.9092L19.3369 25.1468V30.1641C19.6132 30.1668 19.8872 30.1142 20.1429 30.0095C20.3986 29.9047 20.6307 29.7499 20.8257 29.5541Z" fill="white"/>
</svg>
