<svg width="17" height="16" viewBox="0 0 17 16" fill="none" xmlns="http://www.w3.org/2000/svg">
<path d="M9.45964 1.15534L10.8791 3.9943C11.0727 4.3895 11.5889 4.76856 12.0244 4.84115L14.5972 5.2686C16.2425 5.54282 16.6296 6.73647 15.444 7.914L13.4439 9.91417C13.1051 10.2529 12.9196 10.9062 13.0245 11.374L13.5971 13.85C14.0488 15.8098 13.0083 16.568 11.2743 15.5437L8.86281 14.1162C8.42729 13.8581 7.70949 13.8581 7.2659 14.1162L4.8544 15.5437C3.12844 16.568 2.07997 15.8018 2.53162 13.85L3.10425 11.374C3.2091 10.9062 3.0236 10.2529 2.68486 9.91417L0.684683 7.914C-0.492839 6.73647 -0.113774 5.54282 1.53153 5.2686L4.10434 4.84115C4.53179 4.76856 5.04797 4.3895 5.24153 3.9943L6.66101 1.15534C7.43527 -0.385114 8.69345 -0.385114 9.45964 1.15534Z" fill="#8A8A8A"/>
</svg>
